<svg width="360" height="209" viewBox="0 0 360 209" fill="none" xmlns="http://www.w3.org/2000/svg">
<path d="M182.395 41.2665C182.395 18.4757 161.98 0 136.796 0C111.613 0 91.1973 18.4757 91.1973 41.2665C91.1973 64.0574 111.613 82.5331 136.796 82.5331C161.98 82.5331 182.395 64.0574 182.395 41.2665Z" fill="#F5F5F5"/>
<path d="M136.818 59.6906C131.419 59.6906 126.241 57.7495 122.423 54.2942C118.605 50.839 116.46 46.1527 116.46 41.2663C116.46 36.3798 118.605 31.6935 122.423 28.2383C126.241 24.7831 131.419 22.8419 136.818 22.8419C142.218 22.8419 147.396 24.7831 151.214 28.2383C155.032 31.6935 157.177 36.3798 157.177 41.2663C157.177 46.1527 155.032 50.839 151.214 54.2942C147.396 57.7495 142.218 59.6906 136.818 59.6906Z" fill="#61CE70"/>
<path d="M273.593 0H182.395V82.5331H273.593V0Z" fill="#2F3490"/>
<path d="M91.1978 82.5331H0C0 60.6439 9.60831 39.6513 26.7112 24.1734C43.8141 8.69542 67.0106 0 91.1978 0V0V82.5331Z" fill="#DFF5E2"/>
<path d="M273.637 0H364.835C364.835 21.8891 355.227 42.8817 338.124 58.3597C321.021 73.8376 297.825 82.5331 273.637 82.5331V0Z" fill="#F5F5F5"/>
<path d="M91.1978 165.066C67.0106 165.066 43.8141 156.37 26.7112 140.892C9.60831 125.414 0 104.422 0 82.5327H91.1978V165.066Z" fill="#F5F5F5"/>
<path d="M91.1979 129.465C77.4438 129.465 64.2531 124.521 54.5275 115.719C44.8019 106.917 39.3381 94.98 39.3381 82.5327H91.1979V129.465Z" fill="#61CE70"/>
<path d="M182.395 82.5327H91.1973V165.066H182.395V82.5327Z" fill="#2F3490"/>
<path d="M156.312 106.138H117.28V141.461H156.312V106.138Z" fill="#DFF5E2"/>
<path d="M273.593 82.5327H182.395V165.066H273.593V82.5327Z" fill="#DFF5E2"/>
<path d="M273.637 82.5326V165.066H182.395C182.395 154.224 184.756 143.488 189.341 133.472C193.927 123.457 200.649 114.356 209.122 106.692C217.595 99.0275 227.654 92.949 238.724 88.8037C249.793 84.6583 261.657 82.5274 273.637 82.5326Z" fill="#F5F5F5"/>
<path d="M273.637 82.5327C297.825 82.5327 321.021 91.2281 338.124 106.706C355.227 122.184 364.835 143.177 364.835 165.066H273.637V82.5327Z" fill="#61CE70"/>
<path d="M182.395 165.066H91.1973V247.599H182.395V165.066Z" fill="#61CE70"/>
<path d="M273.593 165.066H182.395V247.599H273.593V165.066Z" fill="#F9FBFC"/>
<path d="M91.1978 206.332C91.1978 183.542 70.7825 165.066 45.5989 165.066C20.4153 165.066 0 183.542 0 206.332C0 229.123 20.4153 247.599 45.5989 247.599C70.7825 247.599 91.1978 229.123 91.1978 206.332Z" fill="#2F3490"/>
<path d="M45.5984 224.747C40.2019 224.747 35.0264 222.807 31.2104 219.353C27.3945 215.9 25.2507 211.216 25.2507 206.333C25.2507 201.449 27.3945 196.765 31.2104 193.312C35.0264 189.858 40.2019 187.918 45.5984 187.918C50.9949 187.918 56.1704 189.858 59.9864 193.312C63.8023 196.765 65.9461 201.449 65.9461 206.333C65.9461 211.216 63.8023 215.9 59.9864 219.353C56.1704 222.807 50.9949 224.747 45.5984 224.747Z" fill="#F5F5F5"/>
<path d="M364.802 165.066H273.604V247.599H364.802V165.066Z" fill="#F9FBFC"/>
<path d="M182.395 165.066H273.637V247.639C249.45 247.639 226.253 238.943 209.15 223.465C192.047 207.987 182.439 186.995 182.439 165.106L182.395 165.066Z" fill="#2F3490"/>
<path d="M273.637 165.066H364.835C364.841 175.908 362.486 186.644 357.906 196.662C353.325 206.68 346.609 215.783 338.14 223.451C329.67 231.119 319.615 237.202 308.547 241.352C297.48 245.503 285.617 247.639 273.637 247.639V165.066Z" fill="#F5F5F5"/>
<path d="M273.637 165.066H228.443C228.443 159.697 229.612 154.38 231.884 149.42C234.156 144.46 237.486 139.954 241.683 136.159C245.88 132.365 250.862 129.356 256.345 127.305C261.828 125.254 267.704 124.201 273.637 124.206V165.066Z" fill="#F9FBFC"/>
<path d="M273.637 124.206C285.615 124.206 297.102 128.512 305.571 136.176C314.041 143.841 318.799 154.237 318.799 165.076H273.637V124.206Z" fill="#F5F5F5"/>
<path d="M273.636 205.936C261.659 205.936 250.172 201.63 241.703 193.966C233.233 186.301 228.475 175.905 228.475 165.066H273.636V205.936Z" fill="#61CE70"/>
<path d="M273.637 205.936V165.066H318.788C318.789 170.433 317.622 175.747 315.354 180.706C313.086 185.664 309.76 190.17 305.567 193.965C301.375 197.76 296.397 200.771 290.918 202.825C285.44 204.879 279.568 205.936 273.637 205.936Z" fill="#2F3490"/>
<path d="M102.571 194.783C103.732 194.783 104.845 194.365 105.666 193.622C106.488 192.879 106.949 191.871 106.949 190.821C106.945 189.762 106.481 188.748 105.657 187.997C104.823 187.253 103.699 186.833 102.527 186.829C101.356 186.829 100.232 187.25 99.4039 187.999C98.5757 188.749 98.1104 189.765 98.1104 190.826C98.1104 191.886 98.5757 192.902 99.4039 193.652C100.232 194.401 101.356 194.822 102.527 194.822" fill="#F9FBFC"/>
<path d="M148.114 194.783C149.286 194.783 150.409 194.362 151.237 193.612C152.065 192.862 152.531 191.846 152.531 190.786C152.531 189.726 152.065 188.709 151.237 187.96C150.409 187.21 149.286 186.789 148.114 186.789C146.943 186.789 145.82 187.21 144.991 187.96C144.163 188.709 143.698 189.726 143.698 190.786C143.698 191.846 144.163 192.862 144.991 193.612C145.82 194.362 146.943 194.783 148.114 194.783Z" fill="#F9FBFC"/>
<path d="M125.337 194.783C126.508 194.783 127.632 194.362 128.46 193.612C129.288 192.862 129.754 191.846 129.754 190.786C129.754 189.726 129.288 188.709 128.46 187.96C127.632 187.21 126.508 186.789 125.337 186.789C124.166 186.789 123.042 187.21 122.214 187.96C121.386 188.709 120.921 189.726 120.921 190.786C120.921 191.846 121.386 192.862 122.214 193.612C123.042 194.362 124.166 194.783 125.337 194.783Z" fill="#F9FBFC"/>
<path d="M170.914 194.783C171.925 194.777 172.904 194.456 173.682 193.872C174.461 193.288 174.992 192.478 175.186 191.58C175.38 190.681 175.224 189.75 174.745 188.944C174.266 188.138 173.494 187.507 172.559 187.158C171.624 186.809 170.584 186.763 169.617 187.029C168.649 187.295 167.813 187.856 167.251 188.617C166.688 189.377 166.434 190.291 166.531 191.201C166.628 192.112 167.071 192.965 167.784 193.614C168.616 194.362 169.741 194.782 170.914 194.783Z" fill="#F9FBFC"/>
<path d="M102.57 178.36C103.742 178.355 104.866 177.935 105.7 177.191C106.116 176.822 106.446 176.382 106.671 175.896C106.896 175.411 107.012 174.889 107.012 174.363C107.012 173.836 106.896 173.315 106.671 172.829C106.446 172.344 106.116 171.904 105.7 171.535C104.864 170.794 103.741 170.378 102.57 170.376C101.399 170.376 100.275 170.797 99.4471 171.546C98.6189 172.296 98.1536 173.313 98.1536 174.373C98.1536 175.433 98.6189 176.449 99.4471 177.199C100.275 177.948 101.399 178.37 102.57 178.37" fill="#F9FBFC"/>
<path d="M148.114 178.359C149.286 178.359 150.409 177.938 151.237 177.189C152.065 176.439 152.531 175.423 152.531 174.362C152.531 173.302 152.065 172.286 151.237 171.536C150.409 170.787 149.286 170.366 148.114 170.366C146.943 170.366 145.82 170.787 144.991 171.536C144.163 172.286 143.698 173.302 143.698 174.362C143.698 175.423 144.163 176.439 144.991 177.189C145.82 177.938 146.943 178.359 148.114 178.359Z" fill="#F9FBFC"/>
<path d="M125.337 178.359C126.508 178.359 127.632 177.938 128.46 177.189C129.288 176.439 129.754 175.423 129.754 174.362C129.754 173.302 129.288 172.286 128.46 171.536C127.632 170.787 126.508 170.366 125.337 170.366C124.166 170.366 123.042 170.787 122.214 171.536C121.386 172.286 120.921 173.302 120.921 174.362C120.921 175.423 121.386 176.439 122.214 177.189C123.042 177.938 124.166 178.359 125.337 178.359Z" fill="#F9FBFC"/>
<path d="M170.914 178.359C171.925 178.354 172.904 178.032 173.682 177.448C174.461 176.864 174.992 176.054 175.186 175.156C175.38 174.258 175.224 173.327 174.745 172.521C174.266 171.715 173.494 171.083 172.559 170.734C171.624 170.385 170.584 170.34 169.617 170.606C168.649 170.872 167.813 171.433 167.251 172.193C166.688 172.954 166.434 173.867 166.531 174.778C166.628 175.689 167.071 176.541 167.784 177.19C168.616 177.939 169.741 178.359 170.914 178.359Z" fill="#F9FBFC"/>
<path d="M102.571 211.206C103.732 211.206 104.845 210.789 105.666 210.046C106.488 209.303 106.949 208.295 106.949 207.244C106.945 206.186 106.481 205.171 105.657 204.421C104.823 203.676 103.699 203.257 102.527 203.252C101.356 203.252 100.232 203.673 99.4039 204.423C98.5757 205.172 98.1104 206.189 98.1104 207.249C98.1104 208.309 98.5757 209.326 99.4039 210.075C100.232 210.825 101.356 211.246 102.527 211.246" fill="#F9FBFC"/>
<path d="M148.114 211.206C149.286 211.206 150.409 210.785 151.237 210.035C152.065 209.286 152.531 208.269 152.531 207.209C152.531 206.149 152.065 205.133 151.237 204.383C150.409 203.633 149.286 203.212 148.114 203.212C146.943 203.212 145.82 203.633 144.991 204.383C144.163 205.133 143.698 206.149 143.698 207.209C143.698 208.269 144.163 209.286 144.991 210.035C145.82 210.785 146.943 211.206 148.114 211.206Z" fill="#F9FBFC"/>
<path d="M125.337 211.206C126.508 211.206 127.632 210.785 128.46 210.035C129.288 209.286 129.754 208.269 129.754 207.209C129.754 206.149 129.288 205.133 128.46 204.383C127.632 203.633 126.508 203.212 125.337 203.212C124.166 203.212 123.042 203.633 122.214 204.383C121.386 205.133 120.921 206.149 120.921 207.209C120.921 208.269 121.386 209.286 122.214 210.035C123.042 210.785 124.166 211.206 125.337 211.206Z" fill="#F9FBFC"/>
<path d="M170.914 211.206C171.925 211.201 172.904 210.879 173.682 210.295C174.461 209.711 174.992 208.901 175.186 208.003C175.38 207.105 175.224 206.174 174.745 205.368C174.266 204.561 173.494 203.93 172.559 203.581C171.624 203.232 170.584 203.187 169.617 203.453C168.649 203.719 167.813 204.279 167.251 205.04C166.688 205.801 166.434 206.714 166.531 207.625C166.628 208.536 167.071 209.388 167.784 210.037C168.616 210.786 169.741 211.206 170.914 211.206Z" fill="#F9FBFC"/>
</svg>
